<svg xmlns="http://www.w3.org/2000/svg"
     width="144"
     height="144"
     viewBox="0 0 641.945 531.274"
     fill="currentColor"
     preserveAspectRatio="xMidYMid meet">
    <g transform="translate(-1202 -286)">
        <path d="M594.417-765.376c-24.906,7.33-67.073,34.837-95.446,62.265-14.975,14.5-15.684,14.66-32.788,5.911-37.911-19.152-84.57-29.083-100.569-21.28-9.852,4.808-11.35,12.926-7.8,42.561,1.97,16.788,3,36.649,2.443,48.078-1.34,29.162-7.33,50.364-24.433,87.171-18.443,39.8-28.295,70.462-37.832,118.145C289-377.758,286.64-357.9,288.768-346.7c2.443,12.216,10.561,22.7,23.724,30.423,9.694,5.675,14.5,10.246,16.078,14.975.631,2.049,2.286,8.118,3.547,13.556s3.074,11.822,3.941,14.187,1.419,4.414,1.261,4.65c-.631.552-16.867-1.419-22.069-2.759-15.527-4.02-30.659-14.345-38.778-26.482-11.192-16.945-16.315-38.462-16.236-68.412,0-29.556,3.7-55.092,13.635-94.658,8.512-33.97,13.714-49.654,27.428-82.284,17.418-41.851,26.088-64.945,28.216-75.506,2.759-13.635.315-26.167-5.911-30.265-4.177-2.837-11.034-2.522-17.5.709-9.379,4.65-22.3,20.256-30.975,37.6C256.926-574.72,225.242-465.638,213.262-397.7c-10.483,59.27-9.143,85.516,5.6,108.215,16.551,25.379,58.876,45.95,108.609,52.649,11.822,1.576,38.147,1.813,50.442.394,46.5-5.359,85.752-20.807,132.411-52.1,33.182-22.226,80.629-62.107,120.116-100.885,23.093-22.7,39.093-41.694,49.1-58.4,5.517-9.143,6.936-12.059,8.906-18.758,3.468-11.35,1.025-17.734-14.266-36.728-5.2-6.542-13.241-17.5-17.812-24.433-26.8-40.748-35.388-54.068-37.2-57.93-2.995-6.305-2.759-14.9,1.025-34.679,6.069-32,8.354-62.422,6.857-89.614-1.813-30.738-6.621-49.181-14.5-54.935C609.392-767.189,601.431-767.426,594.417-765.376ZM492.98-569.6c24.512,5.754,44.452,15.842,96.313,48.708,34.127,21.6,56.354,32.866,72.9,36.886,3.783.946,7.566,1.892,8.276,2.049.788.236,1.576,1.5,1.892,3.074.631,3.468-1.97,8.039-7.488,13.241-12.689,11.9-32,12.059-55.644.552-9.931-4.808-18.837-10.4-34.127-21.359-6.936-5.044-12.374-8.433-12.926-8.118s-.631.236-.315-.315c1.261-2.049-39.96-29-57.378-37.6-19.152-9.3-29.871-11.822-48.157-11.192-13,.394-19.31,1.734-31.054,6.542-12.216,4.887-29.477,16.394-42.245,27.98-9.064,8.354-8.591,8.118-8.118,3,1.182-11.034,11.271-28.689,22.7-39.566,14.345-13.714,33.891-22.778,55.329-25.694C463.03-572.75,483.522-571.883,492.98-569.6ZM460.587-507.49c3.389.867,9.221,4.729,12.138,8.039a41.187,41.187,0,0,1,3.547,5.99c1.813,3.7,2.128,5.359,2.128,11.034-.079,6.069-.315,7.172-2.759,11.665-4.1,7.724-10.088,11.98-18.995,13.635-4.177.709-5.832.709-9.694-.315a25.784,25.784,0,0,1-19.625-24.985A23.548,23.548,0,0,1,433.868-500C441.119-507.963,449.395-510.248,460.587-507.49Zm-86.619,72.353c29.556,3.547,67.309,20.886,98.914,45.477,25.852,20.1,35.94,36.571,32.315,52.649-1.734,7.724-5.044,13.083-13.32,21.359-21.99,21.911-71.25,43.191-104.116,45-9.537.473-15.684-.552-22.226-3.7-5.6-2.759-9.143-6.463-11.98-12.611-2.759-5.911-2.916-16.788-.315-21.753,2.286-4.256,7.96-9.852,14.817-14.5,19.074-13,30.581-31.132,30.5-48-.158-17.34-10.4-27.034-31.921-29.95-8.827-1.261-30.659-1.025-43.034.315-5.832.631-10.877.946-11.192.631-.946-1.025,2.207-8.906,5.36-13.556,7.566-10.877,22.463-19.31,38.068-21.28A60.756,60.756,0,0,1,373.968-435.137Z"
              transform="translate(1154.116 1052.776)"/>
        <path d="M153.626-523.573a49.763,49.763,0,0,0-7.488,3.468c-13.32,7.8-114.6,82.442-124.293,91.584-20.729,19.546-22.069,41.615-3.7,61.161,2.837,3,11.35,10.088,18.916,15.763,7.645,5.754,19.94,15.29,27.349,21.2,37.28,29.556,44.531,34.049,55.329,34.6,7.015.394,9.773-.552,14.029-4.493,4.1-3.7,5.675-7.724,5.675-14.266,0-11.271-5.832-19.31-24.039-33.339-42.876-32.866-48.866-38.935-48.866-50.127,0-6.069,1.419-10.01,5.044-13.95,5.044-5.359,31.211-25.931,57.221-44.846,12.926-9.379,26.009-19.231,29-21.674,14.66-12.374,20.965-32.393,13.083-41.773C166.71-525.15,161.193-526.174,153.626-523.573Z"
              transform="translate(1196.727 1001.551)"/>
    </g>
    <style>
        @media (prefers-color-scheme: dark) {
        svg {
        fill: #fff;
        stroke: #fff;
        }
        }
    </style>
</svg>
